HIERARCHY
ROOT ui
{
	 OFFSET 0 0 0
	 CHANNELS 3 XPosition YPosition Z Position
	 EndSite
	 {
	 OFFSET 0 -1 0
	 }
}
ROOT li
{
	 OFFSET 0 0 0
	 CHANNELS 3 XPosition YPosition Z Position
	 EndSite
	 {
	 OFFSET 0 -1 0
	 }
}
ROOT ul
{
	 OFFSET 0 0 0
	 CHANNELS 3 XPosition YPosition Z Position
	 EndSite
	 {
	 OFFSET 0 -1 0
	 }
}
ROOT ll
{
	 OFFSET 0 0 0
	 CHANNELS 3 XPosition YPosition Z Position
	 EndSite
	 {
	 OFFSET 0 -1 0
	 }
}
ROOT tt
{
	 OFFSET 0 0 0
	 CHANNELS 3 XPosition YPosition Z Position
	 EndSite
	 {
	 OFFSET 0 -1 0
	 }
}
ROOT tb
{
	 OFFSET 0 0 0
	 CHANNELS 3 XPosition YPosition Z Position
	 EndSite
	 {
	 OFFSET 0 -1 0
	 }
}
ROOT td
{
	 OFFSET 0 0 0
	 CHANNELS 3 XPosition YPosition Z Position
	 EndSite
	 {
	 OFFSET 0 -1 0
	 }
}
ROOT v
{
	 OFFSET 0 0 0
	 CHANNELS 3 XPosition YPosition Z Position
	 EndSite
	 {
	 OFFSET 0 -1 0
	 }
}
ROOT bn
{
	 OFFSET 0 0 0
	 CHANNELS 3 XPosition YPosition Z Position
	 EndSite
	 {
	 OFFSET 0 -1 0
	 }
}
MOTION
Frames: 13
Frame Time: 0.002
-0.0199592227935791	-7.010030150413514E-4	0		0.5068468017578125	-2.52641943359375	0		-1.020298828125	-0.07676486968994141	0		-0.5150364990234375	-2.699152099609375	0		2.065990234375	-0.1459702911376953	0		3.420894775390625	0.02545378303527832	0		4.5097998046875	-0.05191361236572266	0		5.95701318359375	0.38907327270507813	0		-0.13769273376464844	5.91392724609375	0		
-0.01674629783630371	0.0020965380668640137	0		0.49495773315429686	-2.52539697265625	0		-1.0120248413085937	-0.0700191879272461	0		-0.47900042724609376	-2.70286669921875	0		2.0514248046875	-0.12894651794433593	0		3.42106103515625	0.025201601028442384	0		4.5130595703125	-0.0462454833984375	0		5.96131689453125	0.3966839599609375	0		-0.17517835998535156	5.9253818359375	0		
0.060459640502929686	7.212979793548584E-4	0		0.48931216430664065	-2.51246044921875	0		-1.07561083984375	-0.057112842559814456	0		-0.5148070678710938	-2.699421875	0		2.038734619140625	-0.12294019317626953	0		3.42535693359375	0.029898130416870117	0		4.502291015625	-0.04533877944946289	0		5.96981494140625	0.4132445068359375	0		-0.1407066650390625	5.9306982421875	0		
-0.012204747200012207	0.005757555007934571	0		0.48105322265625	-2.478465087890625	0		-0.9983761596679688	-0.05944913101196289	0		-0.495619384765625	-2.699843994140625	0		2.0577666015625	-0.13742852783203124	0		3.4356025390625	0.028515352249145507	0		4.50255224609375	-0.04559017562866211	0		5.970087890625	0.4129539794921875	0		-0.12138493347167968	5.9242666015625	0		
-0.015966988563537596	0.0017052140235900878	0		0.45432745361328125	-2.476161376953125	0		-1.06998681640625	-0.05338641357421875	0		-0.5344133911132812	-2.701322509765625	0		2.058064453125	-0.13759788513183593	0		3.42579345703125	0.021472570419311523	0		4.498740234375	-0.05275621032714844	0		5.969416015625	0.4137016906738281	0		-0.12288554382324218	5.92718408203125	0		
-0.005780947208404541	-0.007556673049926758	0		0.4815652770996094	-2.47870849609375	0		-1.0655924072265626	-0.04952864456176758	0		-0.5042937927246094	-2.7108935546875	0		2.0275579833984376	-0.12725226593017577	0		3.392050048828125	0.016836019515991212	0		4.4829765625	-0.05870727920532227	0		5.96588671875	0.42152120971679685	0		-0.12339735412597656	5.9281005859375	0		
-0.015278973579406739	0.0015157920122146607	0		0.43406631469726564	-2.46603564453125	0		-1.130052001953125	-0.037548053741455076	0		-0.5290904541015625	-2.71656689453125	0		2.0274765625	-0.154380615234375	0		3.401373046875	0.014529709815979003	0		4.48333154296875	-0.058892894744873046	0		5.97525048828125	0.4211582641601562	0		-0.1408448181152344	5.9323046875	0		
0.0020627379417419434	-8.287010192871094E-4	0		0.493417236328125	-2.46506640625	0		-1.0395111083984374	-0.028048076629638673	0		-0.49282220458984377	-2.72020703125	0		2.050685546875	-0.16486196899414063	0		3.420698486328125	0.011084166526794434	0		4.48578662109375	-0.05408736801147461	0		5.98489208984375	0.4368194580078125	0		-0.1383814697265625	5.93020458984375	0		
-0.014508349418640137	0.0013918349742889405	0		0.4678017883300781	-2.462709716796875	0		-1.0771123046875	-0.027469245910644532	0		-0.5464064331054688	-2.715380859375	0		2.0439326171875	-0.17383918762207032	0		3.396128662109375	0.013370593070983887	0		4.484099609375	-0.05919076538085938	0		5.984310546875	0.43767144775390626	0		-0.14082864379882812	5.93320166015625	0		
-0.01409534740447998	0.0013577320575714111	0		0.4920896301269531	-2.468138916015625	0		-1.03465673828125	-0.025164209365844726	0		-0.5171881103515625	-2.724873046875	0		2.04922900390625	-0.1809876251220703	0		3.398331787109375	2.487239986658096E-4	0		4.48451171875	-0.05930026626586914	0		5.975732421875	0.43768212890625	0		-0.12139945983886719	5.92786328125	0		
-0.013661050796508789	0.0013438370227813721	0		0.441622802734375	-2.459337158203125	0		-1.103068359375	-0.01504860496520996	0		-0.5219072875976563	-2.731797607421875	0		2.055562744140625	-0.18712870788574218	0		3.41261865234375	-0.009041543960571288	0		4.47673583984375	-0.07225070190429687	0		5.985171875	0.43743280029296877	0		-0.12185986328125	5.9288671875	0		
0.06378928756713867	1.0534200072288513E-4	0		0.4969947814941406	-2.463225341796875	0		-1.0875777587890625	-0.013269850730895996	0		-0.5496251220703126	-2.74032958984375	0		2.0198797607421874	-0.19556546020507812	0		3.3980810546875	-0.008837252616882325	0		4.4751796875	-0.07327074432373047	0		5.98176806640625	0.44542388916015624	0		-0.14023724365234375	5.9341826171875	0		
-0.005598374843597412	0.008265580177307129	0		0.44965655517578124	-2.450427001953125	0		-1.0798299560546876	0.002656006097793579	0		-0.5271214599609375	-2.737651123046875	0		2.044428955078125	-0.1919493713378906	0		3.407537109375	-0.010993548393249512	0		4.48179736328125	-0.06539230346679688	0		5.99026220703125	0.44525347900390627	0		-0.17275506591796874	5.92974755859375	0		
